<svg width="46" height="15" viewBox="0 0 46 15" fill="none" xmlns="http://www.w3.org/2000/svg">
<path d="M6 10.5C5.8565 10.5 5.71731 10.4771 5.58242 10.4313C5.44753 10.3855 5.33561 10.3244 5.24664 10.2481L0.295964 6.03435C0.0986543 5.86641 0 5.65267 0 5.39313C0 5.13359 0.0986543 4.91985 0.295964 4.75191C0.493273 4.58397 0.744394 4.5 1.04933 4.5C1.35426 4.5 1.60538 4.58397 1.80269 4.75191L6 8.32442L10.1973 4.75191C10.3946 4.58397 10.6457 4.5 10.9507 4.5C11.2556 4.5 11.5067 4.58397 11.704 4.75191C11.9013 4.91985 12 5.13359 12 5.39313C12 5.65267 11.9013 5.86641 11.704 6.03435L6.75336 10.2481C6.64574 10.3397 6.52915 10.4047 6.40359 10.4432C6.27803 10.4817 6.1435 10.5006 6 10.5Z" fill="white"/>
<path d="M16.4219 10.5341V4.77273H17.5682V10.5341H16.4219ZM14.1165 8.22443V7.08239H19.8778V8.22443H14.1165ZM21.4801 12V11.0455L24.4332 7.9858C24.7486 7.65341 25.0085 7.36222 25.2131 7.11222C25.4205 6.85937 25.5753 6.61932 25.6776 6.39205C25.7798 6.16477 25.831 5.9233 25.831 5.66761C25.831 5.37784 25.7628 5.12784 25.6264 4.91761C25.4901 4.70455 25.304 4.54119 25.0682 4.42756C24.8324 4.31108 24.5668 4.25284 24.2713 4.25284C23.9588 4.25284 23.6861 4.31676 23.4531 4.4446C23.2202 4.57244 23.0412 4.75284 22.9162 4.9858C22.7912 5.21875 22.7287 5.49148 22.7287 5.80398H21.4716C21.4716 5.27273 21.5938 4.80824 21.8381 4.41051C22.0824 4.01278 22.4176 3.70455 22.8438 3.4858C23.2699 3.2642 23.7543 3.15341 24.2969 3.15341C24.8452 3.15341 25.3281 3.26278 25.7457 3.48153C26.1662 3.69744 26.4943 3.9929 26.7301 4.3679C26.9659 4.74006 27.0838 5.16051 27.0838 5.62926C27.0838 5.95312 27.0227 6.26989 26.9006 6.57955C26.7813 6.8892 26.5724 7.23437 26.2741 7.61506C25.9759 7.9929 25.5611 8.4517 25.0298 8.99148L23.2955 10.8068V10.8707H27.2244V12H21.4801ZM31.8864 12.1193C31.4972 12.1136 31.1136 12.0426 30.7358 11.9062C30.3608 11.7699 30.0199 11.5426 29.7131 11.2244C29.4063 10.9062 29.1605 10.4787 28.9759 9.94176C28.794 9.40483 28.7031 8.73437 28.7031 7.9304C28.7031 7.16903 28.7784 6.4929 28.929 5.90199C29.0824 5.31108 29.3026 4.8125 29.5895 4.40625C29.8764 3.99716 30.223 3.68608 30.6293 3.47301C31.0355 3.25994 31.4915 3.15341 31.9972 3.15341C32.517 3.15341 32.9787 3.25568 33.3821 3.46023C33.7855 3.66477 34.1122 3.94744 34.3622 4.30824C34.6151 4.66903 34.7756 5.07955 34.8438 5.53977H33.544C33.456 5.17614 33.2813 4.87926 33.0199 4.64915C32.7585 4.41903 32.4176 4.30398 31.9972 4.30398C31.358 4.30398 30.8594 4.58239 30.5014 5.1392C30.1463 5.69602 29.9673 6.47017 29.9645 7.46165H30.0284C30.179 7.21449 30.3636 7.00426 30.5824 6.83097C30.804 6.65483 31.0511 6.51989 31.3239 6.42614C31.5994 6.32955 31.8892 6.28125 32.1932 6.28125C32.6989 6.28125 33.1563 6.40483 33.5653 6.65199C33.9773 6.89631 34.3054 7.23437 34.5497 7.66619C34.794 8.09801 34.9162 8.59233 34.9162 9.14915C34.9162 9.70597 34.7898 10.2102 34.5369 10.6619C34.2869 11.1136 33.9347 11.4716 33.4801 11.7358C33.0256 11.9972 32.4943 12.125 31.8864 12.1193ZM31.8821 11.0114C32.2173 11.0114 32.517 10.929 32.7812 10.7642C33.0455 10.5994 33.2543 10.3778 33.4077 10.0994C33.5611 9.82102 33.6378 9.50994 33.6378 9.16619C33.6378 8.83097 33.5625 8.52557 33.4119 8.25C33.2642 7.97443 33.0597 7.75568 32.7983 7.59375C32.5398 7.43182 32.2443 7.35085 31.9119 7.35085C31.6591 7.35085 31.4247 7.39915 31.2088 7.49574C30.9957 7.59233 30.8082 7.72585 30.6463 7.89631C30.4844 8.06676 30.3565 8.26278 30.2628 8.48438C30.1719 8.70312 30.1264 8.93466 30.1264 9.17898C30.1264 9.50568 30.2017 9.80824 30.3523 10.0866C30.5057 10.3651 30.7145 10.5895 30.9787 10.7599C31.2457 10.9276 31.5469 11.0114 31.8821 11.0114ZM41.0238 10.3636V9.90341C41.0238 9.57386 41.092 9.27273 41.2283 9C41.3675 8.72443 41.5692 8.50426 41.8335 8.33949C42.1005 8.17187 42.4229 8.08807 42.8008 8.08807C43.1871 8.08807 43.511 8.17045 43.7724 8.33523C44.0337 8.5 44.2312 8.72017 44.3647 8.99574C44.5011 9.27131 44.5692 9.57386 44.5692 9.90341V10.3636C44.5692 10.6932 44.5011 10.9957 44.3647 11.2713C44.2283 11.544 44.0281 11.7642 43.7638 11.9318C43.5025 12.0966 43.1815 12.179 42.8008 12.179C42.4173 12.179 42.0934 12.0966 41.8292 11.9318C41.565 11.7642 41.3647 11.544 41.2283 11.2713C41.092 10.9957 41.0238 10.6932 41.0238 10.3636ZM42.0167 9.90341V10.3636C42.0167 10.608 42.0749 10.8295 42.1914 11.0284C42.3079 11.2273 42.511 11.3267 42.8008 11.3267C43.0877 11.3267 43.288 11.2273 43.4016 11.0284C43.5153 10.8295 43.5721 10.608 43.5721 10.3636V9.90341C43.5721 9.65909 43.5167 9.4375 43.4059 9.23864C43.2979 9.03977 43.0962 8.94034 42.8008 8.94034C42.5167 8.94034 42.315 9.03977 42.1957 9.23864C42.0763 9.4375 42.0167 9.65909 42.0167 9.90341ZM36.6346 5.36932V4.90909C36.6346 4.57955 36.7028 4.27699 36.8391 4.00142C36.9783 3.72585 37.18 3.50568 37.4442 3.34091C37.7113 3.17614 38.0337 3.09375 38.4116 3.09375C38.7979 3.09375 39.1218 3.17614 39.3832 3.34091C39.6445 3.50568 39.842 3.72585 39.9755 4.00142C40.109 4.27699 40.1758 4.57955 40.1758 4.90909V5.36932C40.1758 5.69886 40.1076 6.00142 39.9712 6.27699C39.8377 6.54972 39.6388 6.76989 39.3746 6.9375C39.1133 7.10227 38.7923 7.18466 38.4116 7.18466C38.0252 7.18466 37.6999 7.10227 37.4357 6.9375C37.1744 6.76989 36.9755 6.54972 36.8391 6.27699C36.7028 6.00142 36.6346 5.69886 36.6346 5.36932ZM37.6317 4.90909V5.36932C37.6317 5.61364 37.6886 5.83523 37.8022 6.03409C37.9187 6.23295 38.1218 6.33239 38.4116 6.33239C38.6957 6.33239 38.8945 6.23295 39.0082 6.03409C39.1246 5.83523 39.1829 5.61364 39.1829 5.36932V4.90909C39.1829 4.66477 39.1275 4.44318 39.0167 4.24432C38.9059 4.04545 38.7042 3.94602 38.4116 3.94602C38.1275 3.94602 37.9258 4.04545 37.8065 4.24432C37.69 4.44318 37.6317 4.66477 37.6317 4.90909ZM37.0394 12L43.0394 3.27273H44.0579L38.0579 12H37.0394Z" fill="#F24E1E"/>
</svg>
