<svg width="46" height="15" viewBox="0 0 46 15" fill="none" xmlns="http://www.w3.org/2000/svg">
<path d="M6 4.50001C5.8565 4.50001 5.71731 4.52292 5.58242 4.56872C5.44753 4.61452 5.33561 4.67559 5.24664 4.75192L0.295964 8.96565C0.0986543 9.13359 0 9.34733 0 9.60687C0 9.86641 0.0986543 10.0802 0.295964 10.2481C0.493273 10.416 0.744394 10.5 1.04933 10.5C1.35426 10.5 1.60538 10.416 1.80269 10.2481L6 6.67558L10.1973 10.2481C10.3946 10.416 10.6457 10.5 10.9507 10.5C11.2556 10.5 11.5067 10.416 11.704 10.2481C11.9013 10.0802 12 9.86641 12 9.60687C12 9.34733 11.9013 9.13359 11.704 8.96565L6.75336 4.75192C6.64574 4.66032 6.52915 4.59528 6.40359 4.55681C6.27803 4.51834 6.1435 4.4994 6 4.50001Z" fill="white"/>
<path d="M16.4219 10.5341V4.77273H17.5682V10.5341H16.4219ZM14.1165 8.22443V7.08239H19.8778V8.22443H14.1165ZM21.4801 12V11.0455L24.4332 7.9858C24.7486 7.65341 25.0085 7.36222 25.2131 7.11222C25.4205 6.85937 25.5753 6.61932 25.6776 6.39205C25.7798 6.16477 25.831 5.9233 25.831 5.66761C25.831 5.37784 25.7628 5.12784 25.6264 4.91761C25.4901 4.70455 25.304 4.54119 25.0682 4.42756C24.8324 4.31108 24.5668 4.25284 24.2713 4.25284C23.9588 4.25284 23.6861 4.31676 23.4531 4.4446C23.2202 4.57244 23.0412 4.75284 22.9162 4.9858C22.7912 5.21875 22.7287 5.49148 22.7287 5.80398H21.4716C21.4716 5.27273 21.5938 4.80824 21.8381 4.41051C22.0824 4.01278 22.4176 3.70455 22.8438 3.4858C23.2699 3.2642 23.7543 3.15341 24.2969 3.15341C24.8452 3.15341 25.3281 3.26278 25.7457 3.48153C26.1662 3.69744 26.4943 3.9929 26.7301 4.3679C26.9659 4.74006 27.0838 5.16051 27.0838 5.62926C27.0838 5.95312 27.0227 6.26989 26.9006 6.57955C26.7813 6.8892 26.5724 7.23437 26.2741 7.61506C25.9759 7.9929 25.5611 8.4517 25.0298 8.99148L23.2955 10.8068V10.8707H27.2244V12H21.4801ZM31.7884 12.1193C31.1776 12.1193 30.6378 12.0142 30.169 11.804C29.7031 11.5937 29.3381 11.304 29.0739 10.9347C28.8097 10.5653 28.679 10.1449 28.6818 9.6733C28.679 9.30398 28.7543 8.96449 28.9077 8.65483C29.0639 8.34233 29.2756 8.08239 29.5426 7.875C29.8097 7.66477 30.108 7.53125 30.4375 7.47443V7.4233C30.0028 7.31818 29.6548 7.08523 29.3935 6.72443C29.1321 6.36364 29.0028 5.94886 29.0057 5.48011C29.0028 5.03409 29.1207 4.63636 29.3594 4.28693C29.6009 3.93466 29.9318 3.65767 30.3523 3.45597C30.7727 3.25426 31.2514 3.15341 31.7884 3.15341C32.3196 3.15341 32.794 3.25568 33.2116 3.46023C33.6321 3.66193 33.9631 3.93892 34.2045 4.29119C34.446 4.64062 34.5682 5.03693 34.571 5.48011C34.5682 5.94886 34.4347 6.36364 34.1705 6.72443C33.9063 7.08523 33.5625 7.31818 33.1392 7.4233V7.47443C33.4659 7.53125 33.7599 7.66477 34.0213 7.875C34.2855 8.08239 34.4957 8.34233 34.652 8.65483C34.8111 8.96449 34.892 9.30398 34.8949 9.6733C34.892 10.1449 34.7585 10.5653 34.4943 10.9347C34.2301 11.304 33.8636 11.5937 33.3949 11.804C32.929 12.0142 32.3935 12.1193 31.7884 12.1193ZM31.7884 11.0412C32.1491 11.0412 32.4616 10.9815 32.7259 10.8622C32.9901 10.7401 33.1946 10.571 33.3395 10.3551C33.4844 10.1364 33.5582 9.88068 33.5611 9.58807C33.5582 9.28409 33.4787 9.01562 33.3224 8.78267C33.169 8.54972 32.9602 8.36648 32.696 8.23295C32.4318 8.09943 32.1293 8.03267 31.7884 8.03267C31.4446 8.03267 31.1392 8.09943 30.8722 8.23295C30.6051 8.36648 30.3949 8.54972 30.2415 8.78267C30.0881 9.01562 30.0128 9.28409 30.0156 9.58807C30.0128 9.88068 30.0824 10.1364 30.2244 10.3551C30.3693 10.571 30.5753 10.7401 30.8423 10.8622C31.1094 10.9815 31.4247 11.0412 31.7884 11.0412ZM31.7884 6.98011C32.0781 6.98011 32.3352 6.92187 32.5597 6.8054C32.7841 6.68892 32.9602 6.52699 33.0881 6.3196C33.2188 6.11222 33.2855 5.86932 33.2884 5.59091C33.2855 5.31818 33.2202 5.07955 33.0923 4.875C32.9673 4.67045 32.7926 4.51278 32.5682 4.40199C32.3438 4.28835 32.0838 4.23153 31.7884 4.23153C31.4872 4.23153 31.223 4.28835 30.9957 4.40199C30.7713 4.51278 30.5966 4.67045 30.4716 4.875C30.3466 5.07955 30.2855 5.31818 30.2884 5.59091C30.2855 5.86932 30.348 6.11222 30.4759 6.3196C30.6037 6.52699 30.7798 6.68892 31.0043 6.8054C31.2315 6.92187 31.4929 6.98011 31.7884 6.98011ZM40.9769 10.3636V9.90341C40.9769 9.57386 41.0451 9.27273 41.1815 9C41.3207 8.72443 41.5224 8.50426 41.7866 8.33949C42.0536 8.17187 42.3761 8.08807 42.7539 8.08807C43.1403 8.08807 43.4641 8.17045 43.7255 8.33523C43.9869 8.5 44.1843 8.72017 44.3178 8.99574C44.4542 9.27131 44.5224 9.57386 44.5224 9.90341V10.3636C44.5224 10.6932 44.4542 10.9957 44.3178 11.2713C44.1815 11.544 43.9812 11.7642 43.717 11.9318C43.4556 12.0966 43.1346 12.179 42.7539 12.179C42.3704 12.179 42.0465 12.0966 41.7823 11.9318C41.5181 11.7642 41.3178 11.544 41.1815 11.2713C41.0451 10.9957 40.9769 10.6932 40.9769 10.3636ZM41.9698 9.90341V10.3636C41.9698 10.608 42.0281 10.8295 42.1445 11.0284C42.261 11.2273 42.4641 11.3267 42.7539 11.3267C43.0408 11.3267 43.2411 11.2273 43.3548 11.0284C43.4684 10.8295 43.5252 10.608 43.5252 10.3636V9.90341C43.5252 9.65909 43.4698 9.4375 43.359 9.23864C43.2511 9.03977 43.0494 8.94034 42.7539 8.94034C42.4698 8.94034 42.2681 9.03977 42.1488 9.23864C42.0295 9.4375 41.9698 9.65909 41.9698 9.90341ZM36.5877 5.36932V4.90909C36.5877 4.57955 36.6559 4.27699 36.7923 4.00142C36.9315 3.72585 37.1332 3.50568 37.3974 3.34091C37.6644 3.17614 37.9869 3.09375 38.3647 3.09375C38.7511 3.09375 39.0749 3.17614 39.3363 3.34091C39.5977 3.50568 39.7951 3.72585 39.9286 4.00142C40.0621 4.27699 40.1289 4.57955 40.1289 4.90909V5.36932C40.1289 5.69886 40.0607 6.00142 39.9244 6.27699C39.7908 6.54972 39.592 6.76989 39.3278 6.9375C39.0664 7.10227 38.7454 7.18466 38.3647 7.18466C37.9783 7.18466 37.6531 7.10227 37.3888 6.9375C37.1275 6.76989 36.9286 6.54972 36.7923 6.27699C36.6559 6.00142 36.5877 5.69886 36.5877 5.36932ZM37.5849 4.90909V5.36932C37.5849 5.61364 37.6417 5.83523 37.7553 6.03409C37.8718 6.23295 38.0749 6.33239 38.3647 6.33239C38.6488 6.33239 38.8477 6.23295 38.9613 6.03409C39.0778 5.83523 39.136 5.61364 39.136 5.36932V4.90909C39.136 4.66477 39.0806 4.44318 38.9698 4.24432C38.859 4.04545 38.6573 3.94602 38.3647 3.94602C38.0806 3.94602 37.8789 4.04545 37.7596 4.24432C37.6431 4.44318 37.5849 4.66477 37.5849 4.90909ZM36.9925 12L42.9925 3.27273H44.011L38.011 12H36.9925Z" fill="#1ED760"/>
</svg>
