<svg width="47" height="15" viewBox="0 0 47 15" fill="none" xmlns="http://www.w3.org/2000/svg">
<path d="M6 4.50001C5.8565 4.50001 5.71731 4.52292 5.58242 4.56872C5.44753 4.61452 5.33561 4.67559 5.24664 4.75192L0.295964 8.96565C0.0986543 9.13359 0 9.34733 0 9.60687C0 9.86641 0.0986543 10.0802 0.295964 10.2481C0.493273 10.416 0.744394 10.5 1.04933 10.5C1.35426 10.5 1.60538 10.416 1.80269 10.2481L6 6.67558L10.1973 10.2481C10.3946 10.416 10.6457 10.5 10.9507 10.5C11.2556 10.5 11.5067 10.416 11.704 10.2481C11.9013 10.0802 12 9.86641 12 9.60687C12 9.34733 11.9013 9.13359 11.704 8.96565L6.75336 4.75192C6.64574 4.66032 6.52915 4.59528 6.40359 4.55681C6.27803 4.51834 6.1435 4.4994 6 4.50001Z" fill="white"/>
<path d="M16.4219 10.5341V4.77273H17.5682V10.5341H16.4219ZM14.1165 8.22443V7.08239H19.8778V8.22443H14.1165ZM24.7528 12.1193C24.1676 12.1193 23.6449 12.0185 23.1847 11.8168C22.7273 11.6151 22.3651 11.3352 22.098 10.9773C21.8338 10.6165 21.6918 10.1989 21.6719 9.72443H23.0099C23.027 9.98295 23.1136 10.2074 23.2699 10.3977C23.429 10.5852 23.6364 10.7301 23.892 10.8324C24.1477 10.9347 24.4318 10.9858 24.7443 10.9858C25.0881 10.9858 25.392 10.9261 25.6562 10.8068C25.9233 10.6875 26.1321 10.5213 26.2827 10.3082C26.4332 10.0923 26.5085 9.84375 26.5085 9.5625C26.5085 9.26989 26.4332 9.01278 26.2827 8.79119C26.1349 8.56676 25.9176 8.39062 25.6307 8.26278C25.3466 8.13494 25.0028 8.07102 24.5994 8.07102H23.8622V6.99716H24.5994C24.9233 6.99716 25.2074 6.93892 25.4517 6.82244C25.6989 6.70597 25.892 6.54403 26.0312 6.33665C26.1705 6.12642 26.2401 5.88068 26.2401 5.59943C26.2401 5.32955 26.179 5.09517 26.0568 4.89631C25.9375 4.6946 25.767 4.53693 25.5455 4.4233C25.3267 4.30966 25.0682 4.25284 24.7699 4.25284C24.4858 4.25284 24.2202 4.3054 23.973 4.41051C23.7287 4.51278 23.5298 4.66051 23.3764 4.85369C23.223 5.04403 23.1406 5.27273 23.1293 5.53977H21.8551C21.8693 5.06818 22.0085 4.65341 22.2727 4.29545C22.5398 3.9375 22.892 3.65767 23.3295 3.45597C23.767 3.25426 24.2528 3.15341 24.7869 3.15341C25.3466 3.15341 25.8295 3.26278 26.2358 3.48153C26.6449 3.69744 26.9602 3.9858 27.1818 4.34659C27.4063 4.70739 27.517 5.10227 27.5142 5.53125C27.517 6.01989 27.3807 6.43466 27.1051 6.77557C26.8324 7.11648 26.4688 7.34517 26.0142 7.46165V7.52983C26.5938 7.6179 27.0426 7.84801 27.3608 8.22017C27.6818 8.59233 27.8409 9.05398 27.8381 9.60511C27.8409 10.0852 27.7074 10.5156 27.4375 10.8963C27.1705 11.277 26.8054 11.5767 26.3423 11.7955C25.8793 12.0114 25.3494 12.1193 24.7528 12.1193ZM32.4872 12.1449C31.8139 12.142 31.2386 11.9645 30.7614 11.6122C30.2841 11.2599 29.919 10.7472 29.6662 10.0739C29.4134 9.40057 29.2869 8.58949 29.2869 7.64062C29.2869 6.6946 29.4134 5.88636 29.6662 5.21591C29.9219 4.54545 30.2884 4.03409 30.7656 3.68182C31.2457 3.32955 31.8196 3.15341 32.4872 3.15341C33.1548 3.15341 33.7273 3.33097 34.2045 3.68608C34.6818 4.03835 35.0469 4.54972 35.2997 5.22017C35.5554 5.88778 35.6832 6.6946 35.6832 7.64062C35.6832 8.59233 35.5568 9.40483 35.304 10.0781C35.0511 10.7486 34.6861 11.2614 34.2088 11.6165C33.7315 11.9688 33.1577 12.1449 32.4872 12.1449ZM32.4872 11.0071C33.0781 11.0071 33.5398 10.7188 33.8722 10.142C34.2074 9.56534 34.375 8.73153 34.375 7.64062C34.375 6.91619 34.2983 6.30398 34.1449 5.80398C33.9943 5.30114 33.777 4.92045 33.4929 4.66193C33.2116 4.40057 32.8764 4.26989 32.4872 4.26989C31.8991 4.26989 31.4375 4.55966 31.1023 5.1392C30.767 5.71875 30.598 6.55256 30.5952 7.64062C30.5952 8.3679 30.6705 8.98295 30.821 9.4858C30.9744 9.9858 31.1918 10.3651 31.473 10.6236C31.7543 10.8793 32.0923 11.0071 32.4872 11.0071ZM41.7504 10.3636V9.90341C41.7504 9.57386 41.8185 9.27273 41.9549 9C42.0941 8.72443 42.2958 8.50426 42.56 8.33949C42.8271 8.17187 43.1495 8.08807 43.5273 8.08807C43.9137 8.08807 44.2376 8.17045 44.4989 8.33523C44.7603 8.5 44.9577 8.72017 45.0913 8.99574C45.2276 9.27131 45.2958 9.57386 45.2958 9.90341V10.3636C45.2958 10.6932 45.2276 10.9957 45.0913 11.2713C44.9549 11.544 44.7546 11.7642 44.4904 11.9318C44.229 12.0966 43.908 12.179 43.5273 12.179C43.1438 12.179 42.82 12.0966 42.5558 11.9318C42.2915 11.7642 42.0913 11.544 41.9549 11.2713C41.8185 10.9957 41.7504 10.6932 41.7504 10.3636ZM42.7433 9.90341V10.3636C42.7433 10.608 42.8015 10.8295 42.918 11.0284C43.0344 11.2273 43.2376 11.3267 43.5273 11.3267C43.8143 11.3267 44.0146 11.2273 44.1282 11.0284C44.2418 10.8295 44.2987 10.608 44.2987 10.3636V9.90341C44.2987 9.65909 44.2433 9.4375 44.1325 9.23864C44.0245 9.03977 43.8228 8.94034 43.5273 8.94034C43.2433 8.94034 43.0415 9.03977 42.9222 9.23864C42.8029 9.4375 42.7433 9.65909 42.7433 9.90341ZM37.3612 5.36932V4.90909C37.3612 4.57955 37.4293 4.27699 37.5657 4.00142C37.7049 3.72585 37.9066 3.50568 38.1708 3.34091C38.4379 3.17614 38.7603 3.09375 39.1381 3.09375C39.5245 3.09375 39.8484 3.17614 40.1097 3.34091C40.3711 3.50568 40.5685 3.72585 40.7021 4.00142C40.8356 4.27699 40.9023 4.57955 40.9023 4.90909V5.36932C40.9023 5.69886 40.8342 6.00142 40.6978 6.27699C40.5643 6.54972 40.3654 6.76989 40.1012 6.9375C39.8398 7.10227 39.5188 7.18466 39.1381 7.18466C38.7518 7.18466 38.4265 7.10227 38.1623 6.9375C37.9009 6.76989 37.7021 6.54972 37.5657 6.27699C37.4293 6.00142 37.3612 5.69886 37.3612 5.36932ZM38.3583 4.90909V5.36932C38.3583 5.61364 38.4151 5.83523 38.5288 6.03409C38.6452 6.23295 38.8484 6.33239 39.1381 6.33239C39.4222 6.33239 39.6211 6.23295 39.7347 6.03409C39.8512 5.83523 39.9094 5.61364 39.9094 5.36932V4.90909C39.9094 4.66477 39.854 4.44318 39.7433 4.24432C39.6325 4.04545 39.4308 3.94602 39.1381 3.94602C38.854 3.94602 38.6523 4.04545 38.533 4.24432C38.4165 4.44318 38.3583 4.66477 38.3583 4.90909ZM37.766 12L43.766 3.27273H44.7844L38.7844 12H37.766Z" fill="#1ED760"/>
</svg>
