<svg width="28" height="28" viewBox="0 0 28 28" fill="none" xmlns="http://www.w3.org/2000/svg">
<g clip-path="url(#clip0_7_21)">
<path d="M9.33341 28C11.9094 28 14.0002 25.9093 14.0002 23.3333V18.6666H9.33341C6.75739 18.6666 4.66667 20.7573 4.66667 23.3333C4.66667 25.9093 6.75739 28 9.33341 28Z" fill="#0ACF83"/>
<path d="M4.66667 14C4.66667 11.424 6.75739 9.33325 9.33341 9.33325H14.0002V18.6665H9.33341C6.75739 18.6667 4.66667 16.576 4.66667 14Z" fill="#A259FF"/>
<path d="M4.66667 4.6667C4.66667 2.0907 6.75739 0 9.33341 0H14.0002V9.3333H9.33341C6.75739 9.3333 4.66667 7.2427 4.66667 4.6667Z" fill="#F24E1E"/>
<path d="M13.9999 0H18.6666C21.2426 0 23.3333 2.0907 23.3333 4.6667C23.3333 7.2427 21.2426 9.3333 18.6666 9.3333H13.9999V0Z" fill="#FF7262"/>
<path d="M23.3333 14C23.3333 16.576 21.2426 18.6667 18.6666 18.6667C16.0906 18.6667 13.9999 16.576 13.9999 14C13.9999 11.424 16.0906 9.33325 18.6666 9.33325C21.2426 9.33325 23.3333 11.424 23.3333 14Z" fill="#1ABCFE"/>
</g>
<defs>
<clipPath id="clip0_7_21">
<rect width="28" height="28" fill="white"/>
</clipPath>
</defs>
</svg>
