<svg width="28" height="28" viewBox="0 0 28 28" fill="none" xmlns="http://www.w3.org/2000/svg">
<path d="M14 28C13.4333 28 12.958 27.808 12.574 27.424C12.19 27.04 11.9987 26.5653 12 26V16H2.00001C1.43334 16 0.958007 15.808 0.574007 15.424C0.190007 15.04 -0.00132641 14.5653 6.9204e-06 14C6.9204e-06 13.4333 0.192007 12.958 0.576007 12.574C0.960007 12.19 1.43467 11.9987 2.00001 12H12V2.00001C12 1.43334 12.192 0.958007 12.576 0.574007C12.96 0.190007 13.4347 -0.00132641 14 6.9204e-06C14.5667 6.9204e-06 15.042 0.192007 15.426 0.576007C15.81 0.960007 16.0013 1.43467 16 2.00001V12H26C26.5667 12 27.042 12.192 27.426 12.576C27.81 12.96 28.0013 13.4347 28 14C28 14.5667 27.808 15.042 27.424 15.426C27.04 15.81 26.5653 16.0013 26 16H16V26C16 26.5667 15.808 27.042 15.424 27.426C15.04 27.81 14.5653 28.0013 14 28Z" fill="#CCCCCC"/>
</svg>
