<svg width="28" height="28" viewBox="0 0 28 28" fill="none" xmlns="http://www.w3.org/2000/svg">
<path d="M25.2 24.8889V6.22222H2.8V24.8889H25.2ZM25.2 0C25.9426 0 26.6548 0.327777 27.1799 0.911223C27.705 1.49467 28 2.28599 28 3.11111V24.8889C28 25.714 27.705 26.5053 27.1799 27.0888C26.6548 27.6722 25.9426 28 25.2 28H2.8C2.05739 28 1.3452 27.6722 0.820101 27.0888C0.294999 26.5053 0 25.714 0 24.8889V3.11111C0 2.28599 0.294999 1.49467 0.820101 0.911223C1.3452 0.327777 2.05739 0 2.8 0H25.2ZM15.4 21.7778V18.6667H22.4V21.7778H15.4ZM10.612 15.5556L4.998 9.33333H8.96L13.58 14.4667C14.126 15.0733 14.126 16.0689 13.58 16.6756L8.988 21.7778H5.026L10.612 15.5556Z" fill="#5F5F5F"/>
</svg>
